<svg width="256" height="256" viewBox="0 0 256 256" fill="none" xmlns="http://www.w3.org/2000/svg">
<rect width="256" height="256" rx="64" fill="url(#bg_speaking)"/>
<rect x="1" y="1" width="254" height="254" rx="63" stroke="#E9E9E9" stroke-opacity="0.5" stroke-width="2"/>
<path opacity="0.9" d="M128 228C183.228 228 228 183.228 228 128C228 72.7715 183.228 28 128 28C72.7715 28 28 72.7715 28 128C28 183.228 72.7715 228 128 228Z" stroke="url(#outer_speaking)" stroke-width="13.3333"/>
<path opacity="0.95" d="M128 192C163.346 192 192 163.346 192 128C192 92.6538 163.346 64 128 64C92.6538 64 64 92.6538 64 128C64 163.346 92.6538 192 128 192Z" stroke="url(#inner_speaking)" stroke-width="28.4444"/>
<defs>
<linearGradient id="bg_speaking" x1="43" y1="52" x2="238" y2="128" gradientUnits="userSpaceOnUse">
<stop stop-color="white"/>
<stop offset="1" stop-color="#F0F9FF"/>
</linearGradient>
<linearGradient id="outer_speaking" x1="259" y1="62" x2="-28.5" y2="104.5" gradientUnits="userSpaceOnUse">
<stop stop-color="#047857"/>
<stop offset="1" stop-color="#059669"/>
</linearGradient>
<linearGradient id="inner_speaking" x1="128" y1="64" x2="128" y2="192" gradientUnits="userSpaceOnUse">
<stop stop-color="#10B981"/>
<stop offset="1" stop-color="#059669"/>
</linearGradient>
</defs>
</svg>
